<svg xmlns="http://www.w3.org/2000/svg" data-name="Layer 1" viewBox="0 0 512 512" id="witch"><path fill="#a966ff" d="M484,505.317H28l8.77-74.26a60.00493,60.00493,0,0,1,47.13989-51.66L253.98,343.327l172.54,36.31a59.9981,59.9981,0,0,1,47.08008,50.49Z"></path><path fill="#9c4eff" d="M473.6001,430.127A59.9981,59.9981,0,0,0,426.52,379.637l-172.54-36.31L239.03833,346.496,396.52,379.637a59.9981,59.9981,0,0,1,47.08008,50.49L454,505.317h30Z"></path><path fill="#ffc97a" d="M218.99986,351.88977h74.00029a0,0,0,0,1,0,0v28.543A37.00011,37.00011,0,0,1,256,417.43288H256a37.00011,37.00011,0,0,1-37.00011-37.00011v-28.543A0,0,0,0,1,218.99986,351.88977Z"></path><path fill="#3b3f4d" d="M427.16992,425.297c-10.10986,2.2-46.7998,8.95-78.52978-12.4-19.86011-13.38-29.62012-32.28-35.74024-52.8-3.34985-11.2-5.60986-22.88-7.83984-34.41-5.14014-26.58-12.7002-63.5,1.43994-89.34a50.04744,50.04744,0,0,1,10.81006-13.6c15.25-13.5,41.90991-22.74,61.28-12.26,25.41992,13.77,24.71,54.22,24.5,66.18a108.17323,108.17323,0,0,1-5.71021,32.68Q387.16517,297.092,376.95,284.837a101.31644,101.31644,0,0,0-8.99,40.03C367.29,383.377,420.48,420.747,427.16992,425.297Z"></path><path fill="#313440" d="M356.68994 240.867q-1.42493 7.905-2.83984 15.81-7.26013 40.395-14.52 80.77a24.27777 24.27777 0 0 1-15.27 18.4l-11.16016 4.25c-3.34985-11.2-5.60986-22.88-7.83984-34.41-5.14014-26.58-12.7002-63.5 1.43994-89.34C324.39014 237.297 341.15991 238.887 356.68994 240.867zM363.585 210.4917c25.42432 13.76824 24.71826 54.21337 24.50952 66.17547a106.51711 106.51711 0 0 1-2.06811 19.05988q5.6748 6.80959 11.34936 13.61926a108.05348 108.05348 0 0 0 5.71875-32.67914c.20874-11.9621.9148-52.40723-24.50952-66.17547-8.07446-4.37281-17.41748-5.30579-26.67334-3.93909A37.15969 37.15969 0 0 1 363.585 210.4917zM367.9646 324.869a98.24968 98.24968 0 0 1 4.34106-27.60687l-.10355-.12425A9.13892 9.13892 0 0 0 356.362 300.527 97.739 97.739 0 0 0 352.9646 324.869c-.67114 58.50544 52.51953 95.87934 59.20288 100.42432a121.10879 121.10879 0 0 1-18.01465 2.52033 120.11469 120.11469 0 0 0 33.01465-2.52033C420.48413 420.74835 367.29346 383.37445 367.9646 324.869z"></path><path fill="#3b3f4d" d="M206.93994,325.687c-2.23,11.53-4.49,23.21-7.83984,34.41-6.12012,20.52-15.88013,39.42-35.74024,52.8-31.73,21.35-68.41992,14.6-78.52978,12.4,6.68994-4.55,59.87988-41.92,59.21-100.43a101.31644,101.31644,0,0,0-8.99-40.03q-10.21509,12.255-20.42993,24.51a108.17323,108.17323,0,0,1-5.71021-32.68c-.21-11.96-.91992-52.41,24.5-66.18,19.37012-10.48,46.03-1.24,61.28,12.26a49.83235,49.83235,0,0,1,10.73,13.46C219.65991,262.047,212.09009,299.057,206.93994,325.687Z"></path><path fill="#313440" d="M206.93994,325.687c-2.23,11.53-4.49,23.21-7.83984,34.41l-11.28-4.29a24.29613,24.29613,0,0,1-15.23-18.22l-15.22-81.01-2.99024-15.93c15.74024-1.96,32.80005-3.54,51.04-4.44C219.65991,262.047,212.09009,299.057,206.93994,325.687Z"></path><path fill="#ffcd85" d="M341.68994,240.867q-1.42493,7.905-2.83984,15.81-7.26013,40.395-14.52,80.77a24.27777,24.27777,0,0,1-15.27,18.4l-44.41992,16.91a24.3782,24.3782,0,0,1-17.28028,0l-44.53979-16.95a24.29613,24.29613,0,0,1-15.23-18.22l-15.22-81.01-2.99024-15.93a689.08285,689.08285,0,0,1,172.31006.22Z"></path><path fill="#ffc166" d="M260.84009,235.377q-6.9093-.06116-13.63648.01788a690.09769,690.09769,0,0,1,79.48633,5.47211q-1.42493,7.905-2.83984,15.81-7.26013,40.395-14.52,80.77a24.27777,24.27777,0,0,1-15.27,18.4l-44.41992,16.91c-.37549.14227-.75977.25042-1.14014.37353a24.35768,24.35768,0,0,0,16.14014-.37353l44.41992-16.91a24.27777,24.27777,0,0,0,15.27-18.4q7.25976-40.38,14.52-80.77,1.42493-7.90494,2.83984-15.81A689.98182,689.98182,0,0,0,260.84009,235.377Z"></path><path fill="#ffc166" d="M341.68994,240.867q-1.42493,7.905-2.83984,15.81a651.95311,651.95311,0,0,1-73.18018,5.21,653.36065,653.36065,0,0,1-93.2998-5.31l-2.99024-15.93a689.08285,689.08285,0,0,1,172.31006.22Z"></path><path fill="#a966ff" d="M416.64988,215.33015a14.35681,14.35681,0,0,1-11.04414,14.2765A653.94507,653.94507,0,0,1,265.6666,246.88947a654.2658,654.2658,0,0,1-159.73919-17.39381A14.3569,14.3569,0,0,1,94.8896,215.80719l-.0023-.11155a27.24506,27.24506,0,0,1,27.244-27.47756H389.40389a27.245,27.245,0,0,1,27.244,27.01273Z"></path><path fill="#9c4eff" d="M416.648,215.23083a27.24507,27.24507,0,0,0-27.24414-27.01276h-30A27.24507,27.24507,0,0,1,386.648,215.23083l.002.09931a14.35671,14.35671,0,0,1-11.04419,14.27648,654.35174,654.35174,0,0,1-134.91137,17.16926q12.23291.28737,24.97216.11358a653.94443,653.94443,0,0,0,139.93921-17.28284,14.35671,14.35671,0,0,0,11.04419-14.27648Z"></path><path fill="#a966ff" d="M338.04,192.727a247.44825,247.44825,0,0,1-82.79,14.02,246.92533,246.92533,0,0,1-81.29-14.03,8.726,8.726,0,0,1-5.22-11.45q5.655-10.71,11.31006-21.42,5.67-10.74,11.32983-21.46,17.11524-32.445,34.22022-64.87c6.24-11.81,10.97-24.27,19.88989-34.49a73.6913,73.6913,0,0,1,42.43994-24.32l36.62012-6.39-33.67017,43.62a15.6224,15.6224,0,0,0-1.72,16.29l43.7,91.32L343.26,181.267A8.7479,8.7479,0,0,1,338.04,192.727Z"></path><path fill="#9c4eff" d="M343.26,181.267l-10.40015-21.72-43.69995-91.32a15.6224,15.6224,0,0,1,1.72-16.29l33.67017-43.62L289.88037,14.3667,260.87988,51.937a15.6224,15.6224,0,0,0-1.72,16.29l43.7,91.32L313.26,181.267a8.7479,8.7479,0,0,1-5.22,11.46,248.00552,248.00552,0,0,1-67.07691,13.54852c4.63477.283,9.38892.45715,14.28687.4715a247.44825,247.44825,0,0,0,82.79-14.02A8.7479,8.7479,0,0,0,343.26,181.267Z"></path><path fill="#3b3f4d" d="M338.04,192.727a247.44825,247.44825,0,0,1-82.79,14.02,246.92533,246.92533,0,0,1-81.29-14.03,8.726,8.726,0,0,1-5.22-11.45q5.655-10.71,11.31006-21.42a247.5109,247.5109,0,0,0,75.2,11.97,246.88488,246.88488,0,0,0,77.60986-12.27L343.26,181.267A8.7479,8.7479,0,0,1,338.04,192.727Z"></path><path fill="#313440" d="M343.26,181.267l-10.40015-21.72a247.34406,247.34406,0,0,1-26.60547,7.08893L313.26,181.267a8.7479,8.7479,0,0,1-5.22,11.46,248.00552,248.00552,0,0,1-67.07691,13.54852c4.63477.283,9.38892.45715,14.28687.4715a247.44825,247.44825,0,0,0,82.79-14.02A8.7479,8.7479,0,0,0,343.26,181.267Z"></path><rect width="58.221" height="51.817" x="226.889" y="162.31" fill="#ffe966" rx="5.822"></rect><path fill="#ffe236" d="M279.28857,162.30969h-15a5.82215,5.82215,0,0,1,5.822,5.82214V208.3045a5.82211,5.82211,0,0,1-5.822,5.82214h15a5.82211,5.82211,0,0,0,5.822-5.82214V168.13183A5.82215,5.82215,0,0,0,279.28857,162.30969Z"></path><path fill="#272a33" d="M491.42932,503.47217,481.026,428.28076a67.66461,67.66461,0,0,0-52.96192-56.80224l-44.689-9.40516a89.85036,89.85036,0,0,1-3.93018-63.34533l12.169,14.60254a7.49993,7.49993,0,0,0,12.86719-2.40137,115.41718,115.41718,0,0,0,6.1123-34.94824c.12061-6.91791.40772-23.58417-4.23193-39.67133.31982-.07464.64111-.14374.96045-.21881a21.96453,21.96453,0,0,0,16.82617-21.74121,34.84757,34.84757,0,0,0-34.74414-34.44873H350.90979a16.53314,16.53314,0,0,0-.67969-2.20606c-.06348-.16162-.13379-.3208-.208-.478l-10.27734-21.47541c-.04248-.09771-.09082-.191-.13721-.28607L293.76428,59.66211l36.72363-47.57959A7.5,7.5,0,0,0,323.26135.11182L286.63928,6.502A80.21478,80.21478,0,0,0,225.5758,56.68359l-52.02881,98.599c-.03515.06122-.06591.12561-.09912.18805L162.111,176.95459a7.3902,7.3902,0,0,0-.34082.73975,16.39714,16.39714,0,0,0-.67969,2.20654h-38.959a34.74536,34.74536,0,0,0-34.74414,35.0415c.001.02979.00195.08057.00195.11963.001.02783.001.05567.00195.084a21.84873,21.84873,0,0,0,16.81543,20.83252c.47705.11242.95606.21545,1.43311.32684-4.64063,16.08691-4.35352,32.75531-4.23291,39.6756a115.41718,115.41718,0,0,0,6.1123,34.94824,7.49992,7.49992,0,0,0,12.86719,2.40137L132.55529,298.728a90.81454,90.81454,0,0,1,3.98047,25.41015,91.42091,91.42091,0,0,1-7.60839,37.22675l-46.57715,9.87872a67.46736,67.46736,0,0,0-53.03028,58.11621l-8.76855,74.26075A7.49987,7.49987,0,0,0,27.99963,512h456a7.5,7.5,0,0,0,7.42969-8.52783Zm-95.834-227.75293a99.04113,99.04113,0,0,1-1.75195,16.856l-11.13086-13.35694a7.5,7.5,0,0,0-12.61328,1.752,108.37118,108.37118,0,0,0-9.63477,42.9961c-.5205,45.47119,28.92774,78.70654,48.1504,95.52-15.58106.96972-36.87208-.90088-55.78516-13.63037-10.64014-7.162-23.78662-19.15778-32.70508-48.616a31.94312,31.94312,0,0,0,11.58594-19.2829q8.15917-45.38644,16.32764-90.77246,21.94335-3.08469,43.646-7.62878C395.97863,253.69116,395.70666,269.34058,395.59533,275.71924ZM261.97717,364.92773a16.83434,16.83434,0,0,1-11.9502.00245l-44.53808-16.94825c-.5083-.19372-1-.41925-1.48242-.65985q-.04908-.02517-.09961-.04962a16.91224,16.91224,0,0,1-8.94727-11.88721l-16.21191-86.28692a661.347,661.347,0,0,0,77.30371,4.54522q4.85889-.00072,9.72558-.07226a660.73472,660.73472,0,0,0,66.66114-4.3858q-7.75269,43.06731-15.49121,86.11627a16.8721,16.8721,0,0,1-10.55664,12.71875Zm23.52344,7.09528v7.59271a29.50049,29.50049,0,0,1-59.001,0v-7.58886l18.20215,6.92675a31.84718,31.84718,0,0,0,22.60449-.00439Zm50.82812-188.67a1.2317,1.2317,0,0,1-.77929,1.478A240.21657,240.21657,0,0,1,292.611,195.59564V175.84912A255.12787,255.12787,0,0,0,328.899,167.8288ZM239.05334,63.28271a7.42207,7.42207,0,0,0,.38184-.84521A65.21888,65.21888,0,0,1,289.2174,21.27832l17.59375-3.06982L286.9967,43.87976a7.49591,7.49591,0,0,0-13.46094,6.526l4.51953,11.147c.02588.06415.06348.11969.09083.18268.03417.07831.05664.15973.09375.23725l44.09326,92.13586a240.10741,240.10741,0,0,1-31.36084,6.81531,13.33107,13.33107,0,0,0-11.6836-6.93115H232.71154a13.33092,13.33092,0,0,0-11.67871,6.923,240.35231,240.35231,0,0,1-30.09375-6.45245Zm38.55762,105.71v36.81689H234.38928V168.99268ZM175.652,183.43359l8.13086-15.40869A255.44387,255.44387,0,0,0,219.38928,175.84v19.756a240.22,240.22,0,0,1-42.94043-10.76538,1.23014,1.23014,0,0,1-.79688-1.397Zm-68.0039,37.94532a6.853,6.853,0,0,1-5.26074-6.54444l-.001-.02h.001a19.74421,19.74421,0,0,1,19.74414-19.91357h43.019a16.12221,16.12221,0,0,0,6.31592,4.07812,255.30746,255.30746,0,0,0,48.36621,11.85877,13.33482,13.33482,0,0,0,12.8789,9.9718h46.57715a13.33391,13.33391,0,0,0,12.87891-9.97278A255.27535,255.27535,0,0,0,340.5299,198.98a16.12416,16.12416,0,0,0,6.31836-4.0791h42.55567A19.82206,19.82206,0,0,1,409.15,214.56055l.002.104a6.88664,6.88664,0,0,1-5.26171,6.82373,647.5531,647.5531,0,0,1-138.335,17.085A647.30155,647.30155,0,0,1,107.64807,221.37891Zm43.88769,102.5874A108.3468,108.3468,0,0,0,141.9,280.96973a7.4999,7.4999,0,0,0-12.61328-1.751l-11.12988,13.356a99.04886,99.04886,0,0,1-1.752-16.85742c-.11132-6.3797-.3833-22.03217,3.91211-36.16742q21.27174,4.457,42.78516,7.51037l17.11523,91.09308A31.9751,31.9751,0,0,0,191.881,357.29053c-4.90576,16.44958-13.39209,35.56122-32.71045,48.56543-18.91309,12.73047-40.2002,14.60351-55.78516,13.62988C122.608,402.67285,152.05627,369.4375,151.53576,323.96631ZM425.58264,497V474.13086a7.5,7.5,0,0,0-15,0V497H101.4176V474.13086a7.5,7.5,0,0,0-15,0V497H36.43713l7.7793-65.88086a52.47473,52.47473,0,0,1,41.24511-45.20166l34.13331-7.23938c-14.30957,21.85254-33.34424,35.76416-38.98,39.5968A7.5,7.5,0,0,0,83.234,431.8042a129.17416,129.17416,0,0,0,27.08886,2.8833c16.959-.00049,38-3.44873,57.22364-16.38818,22.19336-14.93854,32.206-35.89875,37.959-54.26178l5.99414,2.28112v13.29706a44.50049,44.50049,0,0,0,89.001,0V366.31281l5.9917-2.281c5.75341,18.36652,15.76806,39.32874,37.9624,54.26746,19.22558,12.94091,40.26269,16.38818,57.22266,16.38818a129.24833,129.24833,0,0,0,27.08886-2.8833,7.5,7.5,0,0,0,2.61914-13.5293,150.53529,150.53529,0,0,1-38.50049-38.87115l32.08936,6.75348a52.62643,52.62643,0,0,1,41.19336,44.1792L475.39026,497ZM256.00012,466.5a7.5,7.5,0,1,0,7.5,7.5A7.5,7.5,0,0,0,256.00012,466.5Zm52.2417-189.04346a7.49981,7.49981,0,1,0-5.35352-14.01172l-23.90039,9.1333a7.49981,7.49981,0,1,0,5.35352,14.01172l3.01513-1.15222c-.00244.07147-.01074.14136-.01074.21344a6.26929,6.26929,0,1,0,10.793-4.33368Zm-77.90918,9.6294a7.50113,7.50113,0,0,0,2.67871-14.50782l-23.90039-9.1333a7.49981,7.49981,0,1,0-5.35352,14.01172l10.104,3.86115a6.26705,6.26705,0,1,0,10.79248,4.33337c0-.072-.0083-.14184-.01074-.21325l3.01464,1.152A7.48247,7.48247,0,0,0,230.33264,287.08594Zm45.77344,45.835a44.91582,44.91582,0,0,1-17.57618,4.1167,45.54524,45.54524,0,0,1-20.13183-4.11817,7.49986,7.49986,0,1,0-6.25391,13.63379,60.61026,60.61026,0,0,0,25.15137,5.502q.82909,0,1.6582-.02344a59.83792,59.83792,0,0,0,23.41406-5.48,7.50016,7.50016,0,0,0-6.26171-13.63086Z"></path></svg>